<?xml version="1.0" standalone="no"?>
<!DOCTYPE svg PUBLIC "-//W3C//DTD SVG 20010904//EN"
 "http://www.w3.org/TR/2001/REC-SVG-20010904/DTD/svg10.dtd">
<svg version="1.0" xmlns="http://www.w3.org/2000/svg"
 width="256.000000pt" height="124.000000pt" viewBox="0 0 256.000000 124.000000"
 preserveAspectRatio="xMidYMid meet">

<g transform="translate(0.000000,124.000000) scale(0.100000,-0.100000)"
fill="#000000" stroke="none">
<path d="M1937 1118 c-42 -33 -51 -96 -73 -540 -7 -131 -22 -168 -71 -168 -57
0 -65 53 -32 213 12 60 18 116 14 135 -13 72 -82 103 -145 65 -66 -39 -113
-222 -114 -448 -1 -163 13 -210 71 -246 77 -48 280 -3 491 107 57 30 115 54
130 54 37 0 68 -24 92 -71 39 -75 104 -89 135 -29 19 37 20 210 1 335 -16 105
-52 246 -70 271 -13 16 -60 23 -74 9 -4 -3 -9 -85 -12 -182 l-5 -175 -34 -30
c-28 -25 -39 -29 -70 -24 -48 7 -86 51 -100 115 -6 30 -11 154 -11 289 0 246
-7 305 -40 322 -26 14 -63 13 -83 -2z"/>
<path d="M780 714 c-290 -26 -522 -80 -626 -145 -40 -26 -45 -33 -42 -61 4
-43 45 -60 80 -34 13 9 38 28 57 41 19 14 52 30 75 37 52 15 382 14 486 -2 41
-6 120 -14 175 -17 92 -5 102 -3 128 17 19 15 27 31 27 51 0 107 -94 137 -360
113z"/>
</g>
</svg>
